<?xml version="1.0" encoding="UTF-8"?>
<!DOCTYPE svg PUBLIC "-//W3C//DTD SVG 1.1//EN" "http://www.w3.org/Graphics/SVG/1.1/DTD/svg11.dtd">
<!-- Creator: CorelDRAW 2017 -->
<svg xmlns="http://www.w3.org/2000/svg" xml:space="preserve" width="517px" height="512px" version="1.1" style="shape-rendering:geometricPrecision; text-rendering:geometricPrecision; image-rendering:optimizeQuality; fill-rule:evenodd; clip-rule:evenodd"
viewBox="0 0 517 511.71"
 xmlns:xlink="http://www.w3.org/1999/xlink">
 <defs>
  <style type="text/css">
   <![CDATA[
    .fil0 {fill:none}
    .fil1 {fill:#092644}
    .fil2 {fill:#BC9D66}
   ]]>
  </style>
 </defs>
 <g id="Camada_x0020_1">
  <metadata id="CorelCorpID_0Corel-Layer"/>
  <rect class="fil0" width="517" height="511.71"/>
  <path class="fil1" d="M58.62 77.03l0 304.44c0.5,7.75 8.43,15 15.01,14.22 68.27,-8.14 122.49,8.75 166.73,52.02 11.53,10.38 24.64,10.88 36.24,0.44 44.24,-43.27 98.46,-60.17 166.73,-52.02 6.58,0.78 14.52,-6.47 15.02,-14.22 0.5,-10.74 -3.73,-17.92 -16.08,-18.99 -68.3,-6.2 -132.93,10.57 -183.71,62.98 -32.75,-47.97 -125.16,-70.85 -171.29,-64.56l0 -275.72c50.1,-2.78 123.51,31.2 160.24,67.79 7.63,7.36 14.86,7.6 21.68,0.46 47.88,-48.65 106.44,-68.41 171.64,-67.69 9.16,-0.41 14.48,-5.03 16.13,-13.64 0.49,-7.77 -4.15,-15.51 -15.38,-15.38 -74.35,0.27 -128.97,16.53 -183.18,64.07 -44.61,-44.22 -123.24,-66.7 -183.02,-64.51 -11.23,-0.13 -16.87,6.59 -16.76,20.31z"/>
  <path class="fil2" d="M184.77 129.13c-4.47,18.36 -5.56,204.34 -0.12,225.72 6.44,-77.9 4.43,-148.68 0.12,-225.72z"/>
  <path class="fil2" d="M135.36 142.73c-6.22,45.61 -8.12,130.49 0.28,175.3 4.97,-27.06 8.15,-153.28 -0.28,-175.3z"/>
  <path class="fil2" d="M333.66 158.54c-6.22,45.6 -8.12,130.48 0.28,175.3 4.96,-27.07 8.15,-153.28 -0.28,-175.3z"/>
  <path class="fil2" d="M283.49 344.54c8.48,-19.08 5.28,-141.99 0.23,-165.58 -7.44,53 -5.03,112.34 -0.23,165.58z"/>
  <path class="fil2" d="M232.01 346.52c8.48,-19.08 5.28,-141.99 0.23,-165.58 -7.44,53 -5.03,112.34 -0.23,165.58z"/>
  <path class="fil2" d="M359.41 182.58c-6.33,17.2 -8.17,108.78 0.34,122.84 4.99,-35.12 7.07,-88.17 -0.34,-122.84z"/>
  <path class="fil2" d="M452.1 164.91c-6.33,17.21 -5.78,107.15 0.34,122.84 4.55,-29.41 7.08,-88.17 -0.34,-122.84z"/>
  <path class="fil2" d="M108.62 294.71c6.65,-18.81 6.45,-104.57 0,-123.47 -6.51,29.68 -6.44,93.8 0,123.47z"/>
  <path class="fil2" d="M159.01 193.56c-6.26,29.54 -5.39,63.9 -0.04,93.65 6.14,-14.28 7.53,-81.52 0.04,-93.65z"/>
  <path class="fil2" d="M308 208.22c-6.26,29.55 -5.39,63.91 -0.04,93.65 7.48,-11.99 7.52,-81.51 0.04,-93.65z"/>
  <path class="fil2" d="M384.63 194.18c-6.26,29.54 -5.39,63.9 -0.05,93.65 7.5,-12 7.53,-81.52 0.05,-93.65z"/>
  <path class="fil2" d="M430.49 185.38c-6.25,29.55 -6.28,64.06 -0.04,93.65 5.85,-12.82 7.53,-81.52 0.04,-93.65z"/>
  <path class="fil2" d="M207.68 226.27c-6.11,11.14 -6.42,50.43 0.02,61.37 6.41,-10.89 6.16,-50.37 -0.02,-61.37z"/>
  <path class="fil2" d="M408.23 205.12c-6.1,11.15 -6.41,50.43 0.02,61.38 6.41,-10.89 6.17,-50.37 -0.02,-61.38z"/>
  <path class="fil2" d="M258.74 402.92c6.62,-47.01 4.39,-126.5 3.2,-177.69 -0.34,-14.79 -1.59,-44.22 -4.16,-56.78 -4.66,61.16 -4.73,117.41 -3.27,178.26l4.23 56.21z"/>
 </g>
</svg>
