<?xml version="1.0" encoding="UTF-8"?>
<!DOCTYPE svg PUBLIC "-//W3C//DTD SVG 1.1//EN" "http://www.w3.org/Graphics/SVG/1.1/DTD/svg11.dtd">
<!-- Creator: CorelDRAW 2017 -->
<svg xmlns="http://www.w3.org/2000/svg" xml:space="preserve" width="512px" height="512px" version="1.1" style="shape-rendering:geometricPrecision; text-rendering:geometricPrecision; image-rendering:optimizeQuality; fill-rule:evenodd; clip-rule:evenodd"
viewBox="0 0 512 512"
 xmlns:xlink="http://www.w3.org/1999/xlink">
 <defs>
  <style type="text/css">
   <![CDATA[
    .fil0 {fill:none}
    .fil1 {fill:#FAFBF1}
    .fil2 {fill:#5CC6D0}
   ]]>
  </style>
 </defs>
 <g id="Camada_x0020_1">
  <metadata id="CorelCorpID_0Corel-Layer"/>
  <rect class="fil0" width="512" height="512"/>
  <path class="fil1" d="M56 76.8l0 305.07c0.5,7.78 8.44,15.04 15.02,14.26 68.31,-8.16 122.57,8.76 166.83,52.13 11.54,10.39 24.65,10.9 36.26,0.44 44.26,-43.37 98.52,-60.29 166.83,-52.13 6.58,0.78 14.52,-6.49 15.02,-14.26 0.5,-10.75 -3.73,-17.95 -16.09,-19.02 -68.33,-6.21 -133,10.59 -183.81,63.12 -32.77,-48.08 -125.23,-71 -171.39,-64.7l0 -276.3c50.13,-2.78 123.58,31.26 160.33,67.93 7.64,7.38 14.88,7.62 21.69,0.46 47.91,-48.75 106.5,-68.55 171.75,-67.83 9.16,-0.41 14.48,-5.03 16.14,-13.67 0.48,-7.78 -4.15,-15.54 -15.39,-15.41 -74.4,0.27 -129.05,16.56 -183.29,64.2 -44.63,-44.31 -123.31,-66.84 -183.13,-64.64 -11.23,-0.13 -16.87,6.6 -16.77,20.35z"/>
  <g id="_3101743428576">
   <path class="fil2" d="M182.98 129.21c-4.43,18.37 -5.5,204.45 -0.11,225.84 6.37,-77.94 4.39,-148.76 0.11,-225.84z"/>
   <path class="fil2" d="M134.05 142.81c-6.16,45.64 -8.04,130.56 0.28,175.4 4.92,-27.07 8.07,-153.36 -0.28,-175.4z"/>
   <path class="fil2" d="M330.43 158.63c-6.16,45.63 -8.04,130.56 0.28,175.4 4.92,-27.08 8.07,-153.37 -0.28,-175.4z"/>
   <path class="fil2" d="M280.75 344.74c8.4,-19.1 5.23,-142.08 0.23,-165.68 -7.37,53.03 -4.98,112.41 -0.23,165.68z"/>
   <path class="fil2" d="M229.77 346.72c8.39,-19.1 5.22,-142.08 0.23,-165.68 -7.37,53.03 -4.98,112.41 -0.23,165.68z"/>
   <path class="fil2" d="M355.94 182.69c-6.28,17.21 -8.1,108.83 0.33,122.9 4.95,-35.13 7,-88.22 -0.33,-122.9z"/>
   <path class="fil2" d="M447.73 165.01c-6.27,17.21 -5.73,107.2 0.34,122.9 4.5,-29.42 7,-88.22 -0.34,-122.9z"/>
   <path class="fil2" d="M107.57 294.88c6.59,-18.82 6.39,-104.63 0,-123.54 -6.44,29.7 -6.38,93.85 0,123.54z"/>
   <path class="fil2" d="M157.47 193.67c-6.2,29.56 -5.34,63.94 -0.04,93.7 6.09,-14.29 7.46,-81.56 0.04,-93.7z"/>
   <path class="fil2" d="M305.02 208.34c-6.2,29.57 -5.34,63.94 -0.04,93.71 7.41,-12.01 7.45,-81.57 0.04,-93.71z"/>
   <path class="fil2" d="M380.9 194.29c-6.19,29.56 -5.33,63.94 -0.04,93.7 7.42,-12 7.46,-81.56 0.04,-93.7z"/>
   <path class="fil2" d="M426.33 185.48c-6.2,29.57 -6.22,64.11 -0.04,93.71 5.79,-12.82 7.46,-81.57 0.04,-93.71z"/>
   <path class="fil2" d="M205.67 226.4c-6.05,11.15 -6.35,50.45 0.02,61.41 6.35,-10.9 6.1,-50.4 -0.02,-61.41z"/>
   <path class="fil2" d="M404.29 205.24c-6.05,11.15 -6.36,50.46 0.01,61.41 6.35,-10.9 6.11,-50.4 -0.01,-61.41z"/>
   <path class="fil2" d="M256.24 403.15c6.55,-47.04 4.34,-126.57 3.17,-177.79 -0.35,-14.8 -1.58,-44.24 -4.12,-56.81 -4.62,61.19 -4.69,117.48 -3.25,178.36l4.2 56.24z"/>
  </g>
 </g>
</svg>
