<?xml version="1.0" encoding="UTF-8"?>
<!DOCTYPE svg PUBLIC "-//W3C//DTD SVG 1.1//EN" "http://www.w3.org/Graphics/SVG/1.1/DTD/svg11.dtd">
<!-- Creator: CorelDRAW 2017 -->
<svg xmlns="http://www.w3.org/2000/svg" xml:space="preserve" width="2480px" height="3508px" version="1.1" style="shape-rendering:geometricPrecision; text-rendering:geometricPrecision; image-rendering:optimizeQuality; fill-rule:evenodd; clip-rule:evenodd"
viewBox="0 0 2480 3507.43"
 xmlns:xlink="http://www.w3.org/1999/xlink">
 <defs>
  <style type="text/css">
   <![CDATA[
    .fil0 {fill:none}
    .fil2 {fill:#FFCC29}
    .fil3 {fill:#D98639}
    .fil4 {fill:#0B3068}
    .fil1 {fill:url(#id0)}
   ]]>
  </style>
  <linearGradient id="id0" gradientUnits="userSpaceOnUse" x1="1030.3" y1="1834.07" x2="1415.48" y2="1654.36">
   <stop offset="0" style="stop-opacity:1; stop-color:#0B3068"/>
   <stop offset="0.580392" style="stop-opacity:1; stop-color:#456799"/>
   <stop offset="1" style="stop-opacity:1; stop-color:#809FCB"/>
  </linearGradient>
 </defs>
 <g id="Camada_x0020_1">
  <metadata id="CorelCorpID_0Corel-Layer"/>
  <rect class="fil0" x="984.03" y="1497.75" width="511.93" height="511.93"/>
  <g id="_1724654559328">
   <polygon class="fil1" points="1240.34,1537.18 1453.51,1644.74 1454.89,1861.27 1242.18,1970.25 1025.11,1859.25 1027.63,1645.55 "/>
   <path class="fil2" d="M1215.5 1570.13l-159.58 82.09c-6.04,3.93 -8.68,8.72 -8.72,14.14l-0.28 175.17c0.45,6.06 3.78,11.19 10.13,15.39l158.51 81.99c4.52,2.37 6.5,0.42 6.47,-4.96l-0.28 -39.95c-0.27,-3.77 -4.32,-8.4 -9.29,-10.91l-106.17 -55.45c-3.91,-2.11 -5.9,-5.02 -6.19,-9.18l0 -130.26c0.31,-3.52 2.04,-6.58 5.91,-8.94l107.23 -55.78c4.8,-3.11 7.69,-7.08 8.16,-12.16l0 -40.2c0.11,-2.52 -2,-2.72 -5.9,-0.99z"/>
   <path class="fil3" d="M1049.96 1657.84c-1.79,2.6 -2.63,5.44 -2.66,8.48l-0.28 175.17c0.45,6.06 3.79,11.19 10.13,15.39l158.51 81.99c4.52,2.36 6.51,0.41 6.48,-4.96l-0.29 -39.95c-0.26,-3.77 -4.31,-8.4 -9.28,-10.92l-106.18 -55.44c-3.9,-2.11 -5.9,-5.02 -6.19,-9.18l0 -130.27c0.16,-1.86 0.73,-3.59 1.79,-5.15l-52.03 -25.16z"/>
   <path class="fil2" d="M1425.05 1649.28c3.31,-1.7 4.16,0.81 4.14,5.4l0.31 188.68c-0.44,6.08 -4.07,12.66 -10.31,17.26l-156.58 78.73c-4.44,2.64 -4.88,1.16 -4.85,-4.22l-0.18 -143.79c-0.09,-3.19 1.92,-10.05 7.54,-12.24l113.87 -64.49 0.12 -37c-0.02,-3.63 0.35,-5.61 4.74,-7.88l41.2 -20.45zm-115.04 227.17l62.32 -34.31c3.84,-2.36 5.8,-5.39 6.08,-9.57l0.43 -71.22 -65.19 38.37c-1.96,1.4 -4.54,7.06 -4.33,9.72l0.69 67.01z"/>
   <path class="fil2" d="M1201.85 1836.44c3.35,1.13 4.76,0.29 4.81,-5.18 -0.27,-29.31 -0.13,-62.79 -0.03,-92.09 0.05,-3.65 0.69,-4.14 3.97,-6.07l66.51 -39.04c2.22,-1.35 1.5,-3.36 -0.37,-4.4l-38.97 -20.52c-2.56,-1.4 -5.9,-2.49 -10.34,0.13l-65.03 36.06c-6.24,3.36 -8.49,7.25 -8.59,13.26l0.03 87.63c-0.03,3.63 1.82,6.6 6.22,8.87l41.79 21.35z"/>
   <path class="fil3" d="M1202.19 1836.63c3.35,1.14 4.76,0.3 4.81,-5.18 -0.27,-29.3 -0.13,-62.79 -0.03,-92.09 0.02,-1.78 0.19,-2.81 0.74,-3.63l-50.8 -25.65c-1.9,2.38 -2.7,5.18 -2.76,8.7l0.03 87.63c-0.03,3.63 1.82,6.6 6.22,8.87l41.79 21.35z"/>
   <path class="fil2" d="M1303.53 1622.15l37.49 21.96c1.7,1.24 1.63,3.35 -0.1,4.58l-36.37 19.91c-3.26,1.57 -7.88,1.78 -11.51,0.04l-35.71 -20.6c-1.92,-1.45 -1.88,-2.96 0.54,-4.51l34.31 -20.89c2.19,-1.12 8.3,-2.04 11.35,-0.49z"/>
   <path class="fil4" d="M1250.16 1535.81l196.67 101.77c7.11,4.04 12.64,10.77 12.4,19.08l0.73 196.48c0.25,7.01 -5.8,16.03 -12.3,19.11l-197.29 99.71c-4.8,2.41 -16.32,2.24 -21.13,-0.18l-194.72 -98.07c-9.85,-4.48 -14.67,-14.53 -14.49,-23.03l0.99 -193.63c-0.74,-6.57 4.76,-15.94 11.92,-19.1l198.25 -103.08c6.95,-1.7 13.33,-1.55 18.97,0.94zm-3.57 7.09l197.88 100.47c3.91,1.97 7.5,7.78 7.5,11.74l0 195.32c0,4.91 -2.64,11.26 -7.58,13.74l-195.19 99.04c-4.25,2.14 -14.46,1.98 -18.72,-0.16l-194.85 -98.99c-4.37,-2.19 -7.35,-8.19 -7.35,-12.55l0 -97.76 0 -98.63c0,-4.34 2.72,-9.42 7.05,-11.6l98.84 -49.75 99.32 -51.04c3.28,-1.65 9.9,-1.44 13.1,0.17z"/>
  </g>
 </g>
</svg>
